# xmcd CD database file
#
# Track frame offsets:
#	150
#	9486
#	25482
#	42087
#	56341
#	73208
#
# Disc length: 1252 seconds
#
# Revision: 0
# Processed by: cddbd v1.5.1PL2 Copyright (c) Steve Scherf et al.
# Submitted via: ACXtractor (MTCDDB.DLL V2003.07.15)
#
DISCID=4904e206
DTITLE=Various Artist - The Women There Don't treat You Mean - Abilene in Song
DYEAR=2006
DGENRE=Folk-Rock
TTITLE0=Abilene - Slim Chance and Survivors
TTITLE1=The Road to Abilene - Victoria Moore
TTITLE2=Way Out in Abilene - Happy Fat
TTITLE3=The Jewel of Abilene - JamisonPriest
TTITLE4=Sweet Abilene - Greg Young
TTITLE5=A Prayer for Abilene - Greg Young
EXTD=Abilene in Song ID3G:  81 YEAR: 2006
EXTT0=
EXTT1=
EXTT2=
EXTT3=
EXTT4=
EXTT5=
PLAYORDER=
